<?xml version="1.0" encoding="UTF-8"?>
<svg xmlns="http://www.w3.org/2000/svg" width="124" height="48" viewBox="0 0 124 48" fill="none">
  <path fill-rule="evenodd" clip-rule="evenodd" d="M13.4148 38.9879C15.1702 40.1253 17.1977 40.694 19.4971 40.694C21.7965 40.694 23.8116 40.1253 25.5424 38.9879C27.2979 37.8506 28.6454 36.2929 29.5849 34.3149C30.5245 32.3369 30.9942 30.1364 30.9942 27.7133C30.9942 25.2903 30.5245 23.0898 29.5849 21.1118C28.6454 19.1338 27.2979 17.5761 25.5424 16.4387C23.8116 15.3014 21.7965 14.7327 19.4971 14.7327C17.1977 14.7327 15.1702 15.3014 13.4148 16.4387C11.684 17.5761 10.3489 19.1338 9.40932 21.1118C8.46977 23.0898 8 25.2903 8 27.7133C8 30.1364 8.46977 32.3369 9.40932 34.3149C10.3489 36.2929 11.684 37.8506 13.4148 38.9879ZM23.6509 37.8011C22.4888 38.7407 21.1042 39.2105 19.4971 39.2105C17.89 39.2105 16.493 38.7407 15.3062 37.8011C14.1442 36.8616 13.2541 35.5388 12.6359 33.8328C12.0178 32.102 11.7087 30.0622 11.7087 27.7133C11.7087 25.3645 12.0178 23.337 12.6359 21.631C13.2541 19.9002 14.1442 18.5651 15.3062 17.6255C16.493 16.686 17.89 16.2162 19.4971 16.2162C21.1042 16.2162 22.4888 16.686 23.6509 17.6255C24.8377 18.5651 25.7402 19.9002 26.3583 21.631C26.9764 23.337 27.2855 25.3645 27.2855 27.7133C27.2855 30.0622 26.9764 32.102 26.3583 33.8328C25.7402 35.5388 24.8377 36.8616 23.6509 37.8011ZM35.4045 24.19C35.7506 24.7834 35.9237 25.7106 35.9237 26.9716V46.9988H39.2616V39.2105C39.9786 39.5566 40.6956 39.8286 41.4126 40.0264C42.1297 40.2242 42.958 40.3231 43.8975 40.3231C46.1969 40.3231 47.94 39.4701 49.1268 37.764C50.3384 36.058 50.9441 33.8822 50.9441 31.2367C50.9441 28.6158 50.3631 26.4524 49.201 24.7463C48.0389 23.0156 46.3947 22.1502 44.2684 22.1502C43.0074 22.1502 41.9689 22.348 41.153 22.7436C40.3371 23.1392 39.7066 23.6214 39.2616 24.19H39.0761C38.8783 23.5966 38.5322 23.1763 38.0377 22.9291C37.5679 22.6571 36.8632 22.5211 35.9237 22.5211H32.5858V23.2628H33.3276C34.366 23.2628 35.0583 23.5719 35.4045 24.19ZM46.2711 36.7627C45.5294 38.1473 44.3673 38.8396 42.7849 38.8396C42.2657 38.8396 41.7341 38.7407 41.1901 38.5429C40.6462 38.3451 40.0033 38.0731 39.2616 37.727V25.859C40.2011 24.3755 41.4992 23.6337 43.1558 23.6337C44.5651 23.6337 45.6283 24.3384 46.3453 25.7477C47.0623 27.1323 47.4208 28.962 47.4208 31.2367C47.4208 33.5361 47.0376 35.3781 46.2711 36.7627ZM58.4655 19.8963C58.4817 19.8815 58.4976 19.8664 58.5132 19.8508C58.7713 19.6125 58.9258 19.3024 58.9766 18.9205C58.8704 19.2807 58.6948 19.6112 58.4655 19.8963ZM55.8799 26.9716C55.8799 25.7106 55.7069 24.7834 55.3607 24.19C55.0146 23.5719 54.3223 23.2628 53.2838 23.2628H52.5421V22.5211H55.8799C56.7948 22.5211 57.4747 22.6447 57.9198 22.892C58.3895 23.1145 58.7233 23.5348 58.9211 24.1529C59.1189 24.7711 59.2178 25.7106 59.2178 26.9716V39.9522H55.8799V26.9716ZM62.4108 39.9522C63.1526 40.1995 63.8325 40.3231 64.4506 40.3231C65.4644 40.3231 66.3174 40.0635 67.0097 39.5442C67.7267 39.0003 68.3819 38.1473 68.9753 36.9852L71.2006 32.5347H74.0934V39.9522H77.4313V26.9716C77.4313 25.7106 77.6043 24.7834 77.9505 24.19C78.2966 23.5719 78.9889 23.2628 80.0274 23.2628V22.5211H71.3118C66.3668 22.5211 63.8943 24.19 63.8943 27.5279C63.8943 28.8383 64.3023 29.9262 65.1182 30.7916C65.9589 31.6322 66.9726 32.1515 68.1594 32.3493L65.9341 36.2435C65.3902 37.1088 64.8586 37.8011 64.3394 38.3204C63.8201 38.8396 63.1773 39.1363 62.4108 39.2105V39.9522ZM72.9437 31.1254C72.4739 31.1996 72.0536 31.2367 71.6827 31.2367C68.8393 31.2367 67.4176 30.0004 67.4176 27.5279C67.4176 25.0554 68.8393 23.8192 71.6827 23.8192C72.0536 23.8192 72.4739 23.8562 72.9437 23.9304C73.4134 24.0046 73.7967 24.0911 74.0934 24.19V30.8658C73.7967 30.9647 73.4134 31.0512 72.9437 31.1254ZM83.8758 26.9716C83.8758 25.7106 83.7027 24.7834 83.3566 24.19C83.0104 23.5719 82.3181 23.2628 81.2797 23.2628H80.7233V22.5211H83.8758C84.7906 22.5211 85.4705 22.6447 85.9156 22.892C86.3854 23.1145 86.7192 23.5348 86.917 24.1529C87.1148 24.7711 87.2137 25.7106 87.2137 26.9716V30.4949H94.6312V22.5211H97.969V35.5017C97.969 36.7627 98.1421 37.7022 98.4883 38.3204C98.8344 38.9138 99.5267 39.2105 100.565 39.2105H101.121V39.9522H97.969C97.0542 39.9522 96.3619 39.8409 95.8921 39.6184C95.4471 39.3712 95.1256 38.9385 94.9278 38.3204C94.73 37.7022 94.6312 36.7627 94.6312 35.5017V31.9784H87.2137V39.9522H83.8758V26.9716ZM105.599 39.8409C106.415 40.1624 107.219 40.3231 108.01 40.3231C109.296 40.3231 110.371 40.1253 111.236 39.7297C112.102 39.3341 112.757 38.8519 113.202 38.2833H113.388L114.686 39.9522H116.54V29.9386C116.54 26.8974 115.959 24.8452 114.797 23.7821C113.635 22.6942 112.052 22.1502 110.05 22.1502C108.838 22.1502 107.713 22.2615 106.675 22.484C105.661 22.6818 104.932 23.0032 104.487 23.4483C104.066 23.8686 103.807 24.326 103.708 24.8205C103.609 25.2903 103.559 25.9455 103.559 26.7862H105.228C105.5 25.6241 105.97 24.8082 106.638 24.3384C107.305 23.8686 108.195 23.6337 109.308 23.6337C110.569 23.6337 111.533 24.0788 112.201 24.9689C112.868 25.859 113.202 27.5155 113.202 29.9386H112.09C109.271 29.9386 106.984 30.3342 105.228 31.1254C103.498 31.9166 102.632 33.2517 102.632 35.1308C102.632 36.3918 102.917 37.4055 103.485 38.172C104.079 38.9385 104.783 39.4948 105.599 39.8409ZM111.719 38.0607C111.175 38.4563 110.495 38.6541 109.679 38.6541C108.69 38.6541 107.849 38.3574 107.157 37.764C106.489 37.1459 106.156 36.2682 106.156 35.1308C106.156 34.0182 106.687 33.1281 107.75 32.4605C108.813 31.7682 110.26 31.4221 112.09 31.4221H113.202V36.4289C112.757 37.1212 112.263 37.6651 111.719 38.0607Z" fill="#1E1E1E"></path>
  <path d="M89.147 17.0671C88.999 17.0671 88.8382 17.0381 88.6645 16.9802V16.739C88.9862 16.7261 89.2596 16.5878 89.4848 16.324C89.7164 16.0602 89.903 15.5681 90.0445 14.8475C90.186 14.1205 90.2568 13.0911 90.2568 11.7594C90.2568 11.4313 90.2118 11.19 90.1217 11.0356C90.0316 10.8748 89.8515 10.7943 89.5813 10.7943H89.4848V10.6013H94.2617V16.9706H93.3932V10.9874H90.9806V11.7594C90.9806 13.149 90.8969 14.2363 90.7297 15.0212C90.5688 15.7997 90.3533 16.3369 90.0831 16.6328C89.8193 16.9223 89.5073 17.0671 89.147 17.0671Z" fill="#1E1E1E"></path>
  <path d="M96.8206 16.9706C96.5825 16.9706 96.4024 16.9416 96.2801 16.8837C96.1643 16.8194 96.0807 16.7068 96.0292 16.546C95.9778 16.3851 95.952 16.1407 95.952 15.8125V10.6013H96.8206V15.8125C96.8206 16.1407 96.8656 16.3851 96.9557 16.546C97.0457 16.7004 97.2259 16.7776 97.4961 16.7776H97.6891V16.9706H96.8206Z" fill="#1E1E1E"></path>
  <path d="M103.934 18.7077C103.857 18.0643 103.725 17.6139 103.539 17.3566C103.352 17.0993 103.082 16.9706 102.728 16.9706H98.868V11.7594C98.868 11.4313 98.8229 11.19 98.7329 11.0356C98.6428 10.8748 98.4626 10.7943 98.1924 10.7943H97.9994V10.6013H98.868C99.106 10.6013 99.2829 10.6335 99.3987 10.6978C99.521 10.7557 99.6078 10.8651 99.6593 11.026C99.7108 11.1868 99.7365 11.4313 99.7365 11.7594V16.5846H102.632V10.6013H103.5V16.5846H104.031C104.127 16.5846 104.208 16.6167 104.272 16.6811C104.337 16.7454 104.369 16.8258 104.369 16.9223V18.7077H103.934Z" fill="#1E1E1E"></path>
  <path d="M105.578 11.7594C105.578 11.4313 105.533 11.19 105.443 11.0356C105.353 10.8748 105.173 10.7943 104.902 10.7943H104.709V10.6013H108.821C109.367 10.6013 109.641 10.8587 109.641 11.3734V12.0971H109.448C109.448 11.3573 109.046 10.9874 108.241 10.9874H106.447V13.4965H109.052V13.8825H106.447V16.5846H108.135C108.579 16.5846 108.927 16.5042 109.178 16.3433C109.428 16.1825 109.628 15.909 109.776 15.523L109.969 15.5713L109.631 16.4881C109.515 16.8097 109.274 16.9706 108.907 16.9706H105.578V11.7594Z" fill="#1E1E1E"></path>
  <path d="M111.27 11.7594C111.27 11.4313 111.225 11.19 111.135 11.0356C111.045 10.8748 110.865 10.7943 110.595 10.7943H110.402V10.6013H111.27C111.508 10.6013 111.685 10.6335 111.801 10.6978C111.923 10.7557 112.01 10.8651 112.062 11.026C112.113 11.1868 112.139 11.4313 112.139 11.7594V16.1021L115.227 10.6013H116.095V16.9706H115.227V11.4699L112.139 16.9706H111.27V11.7594ZM113.586 10.2153C113.007 10.2153 112.589 9.92581 112.332 9.34679L112.525 9.20203C112.756 9.49155 113.11 9.6363 113.586 9.6363C114.062 9.6363 114.416 9.49155 114.648 9.20203L114.841 9.34679C114.583 9.92581 114.165 10.2153 113.586 10.2153Z" fill="#1E1E1E"></path>
  <path d="M56.1234 19.7611C54.8591 18.9708 54.0171 17.5641 54.0171 15.9601C54.0171 15.1359 54.6835 14.4679 55.5051 14.4679C56.3269 14.4679 56.9932 15.1359 56.9932 15.9601C56.9932 16.7842 57.6596 17.4522 58.4814 17.4522C59.303 17.4522 59.9695 16.7842 59.9695 15.9601C59.9695 13.4876 57.9708 11.4836 55.5056 11.4836C53.0406 11.4836 51.0419 13.4876 51.0419 15.9601C51.0419 16.5112 51.1034 17.0479 51.2165 17.5651M53.6043 19.3806C52.927 18.4117 52.5286 17.2329 52.5286 15.9601C52.5286 14.3117 53.8609 12.9758 55.5043 12.9758C57.1477 12.9758 58.4799 14.3117 58.4799 15.9601M58.6412 18.9365C58.5876 18.9394 58.5351 18.9444 58.481 18.9444C56.8376 18.9444 55.5053 17.6084 55.5053 15.9601M59.6596 11.8785C58.6448 10.7231 57.1612 9.99142 55.5049 9.99142C53.8486 9.99142 52.365 10.7231 51.3502 11.8785" stroke="#1E1E1E" stroke-width="0.907805" stroke-linecap="round" stroke-linejoin="round"></path>
  <mask id="mask0_167_648" style="mask-type:luminance" maskUnits="userSpaceOnUse" x="41" y="2" width="29" height="26">
    <path d="M68.7858 2.10046L41.5626 2.5519L42.3773 27.6209L69.6005 27.1694L68.7858 2.10046Z" fill="white"></path>
  </mask>
  <g mask="url(#mask0_167_648)">
    <path d="M47.9325 15.4105C47.9841 15.3394 48.0205 15.2578 48.0391 15.1711C48.0578 15.0843 48.0585 14.9942 48.041 14.9065C47.957 14.3277 47.4569 14.3389 47.0955 14.3468L47.0681 14.3471C46.6935 14.355 46.3232 14.3864 45.894 14.4227C45.6986 14.4393 45.4911 14.457 45.2675 14.4736C45.124 14.475 44.9683 14.4734 44.8036 14.4718C44.2971 14.4571 43.7908 14.4729 43.2873 14.519C43.019 14.5486 42.6088 14.8601 42.5715 15.126C42.5592 15.187 42.5601 15.2502 42.5742 15.3113C42.5882 15.3723 42.6151 15.4299 42.6529 15.4798C42.7962 15.6572 43.0733 15.6876 43.3216 15.7022C43.5327 15.7146 43.7432 15.7342 43.9546 15.7536C44.3106 15.7865 44.6791 15.8204 45.0426 15.819L45.1454 15.8179C45.7616 15.8117 46.441 15.7739 47.2721 15.6997C47.3966 15.6997 47.5193 15.674 47.6327 15.6243C47.7463 15.5745 47.8482 15.5018 47.9325 15.4105Z" fill="#1E1E1E"></path>
    <path d="M54.5144 3.16424C54.5406 3.90087 54.5774 4.64911 54.6123 5.3721L54.6502 6.15455C54.6512 6.18642 54.65 6.22034 54.6486 6.25445C54.6336 6.35122 54.6492 6.451 54.6931 6.53854C54.7327 6.59821 54.7719 6.66433 54.8115 6.73143C54.9552 6.97344 55.1038 7.22382 55.3175 7.28867C55.3772 7.30748 55.4391 7.31678 55.5011 7.31628C55.587 7.31517 55.6708 7.28999 55.7437 7.24333C55.9656 7.10242 56.064 6.79655 56.1072 6.56488C56.1482 6.3066 56.1687 6.04487 56.1684 5.78235C56.1708 5.68885 56.1731 5.59537 56.1772 5.50252L56.2804 5.46697L56.2619 5.38952C56.2079 5.16277 56.1564 4.93498 56.1049 4.70734C55.9702 4.11028 55.8305 3.49306 55.6429 2.90064C55.5761 2.75134 55.4748 2.62162 55.3482 2.52359C55.2217 2.42555 55.0741 2.3624 54.9193 2.34001C54.8632 2.33778 54.8075 2.34717 54.7553 2.36767C54.7031 2.38816 54.6554 2.41934 54.6149 2.45943C54.4828 2.60768 54.4968 2.84812 54.5091 3.06026C54.5111 3.09683 54.5132 3.13187 54.5144 3.16424Z" fill="#1E1E1E"></path>
    <path d="M60.9022 9.46553C61.1218 9.46252 61.3373 9.41021 61.533 9.31231C61.7288 9.2144 61.9001 9.07337 62.0345 8.89933C62.6898 8.16078 63.3293 7.38664 63.9482 6.63797L64.3779 6.11867C64.5015 5.98413 64.5928 5.82226 64.6447 5.64539C64.6679 5.54785 64.7012 5.17794 64.5455 5.10007C64.358 5.02795 64.1528 5.0232 63.9644 5.08655C63.8506 5.13433 63.7525 5.21321 63.6808 5.31453C63.6594 5.33945 63.6381 5.36405 63.6168 5.38664C63.3989 5.61786 63.1803 5.84849 62.9609 6.07854C62.3352 6.73661 61.6885 7.41709 61.0763 8.10945C60.8971 8.33478 60.7489 8.58393 60.6357 8.85029C60.5664 8.9932 60.4947 9.14085 60.4085 9.2982L60.3502 9.40421L60.4692 9.42613C60.6121 9.45358 60.7572 9.46678 60.9022 9.46553Z" fill="#1E1E1E"></path>
    <path d="M68.5362 13.9613C68.2952 13.8957 68.0479 13.8614 67.7999 13.8592C66.9345 13.893 66.0567 13.9528 65.2078 14.0107C64.8994 14.0317 64.5911 14.0523 64.2829 14.0725C64.262 14.0737 64.2396 14.0729 64.2171 14.0731C64.1331 14.0615 64.0486 14.0819 63.9799 14.1304C63.9355 14.1725 63.8853 14.2148 63.8344 14.2578C63.656 14.4085 63.4716 14.5644 63.4472 14.7623C63.4355 14.8251 63.438 14.89 63.4546 14.9522C63.471 15.0144 63.5011 15.0723 63.5426 15.1214C63.6206 15.1913 63.7122 15.2437 63.8109 15.2752C63.9097 15.3068 64.0135 15.3168 64.1155 15.3045L64.1382 15.3043C64.4763 15.2966 64.8146 15.293 65.1529 15.2892C65.9204 15.2807 66.7143 15.2721 67.4921 15.2171C68.0313 15.1792 68.6332 15.025 69.0075 14.1694L69.0532 14.0649L68.9412 14.0454C68.7964 14.0197 68.6625 13.9898 68.5362 13.9613Z" fill="#1E1E1E"></path>
    <path d="M49.4977 10.4004L49.597 10.4566L49.6214 10.3451C49.8107 9.47874 49.794 9.26117 49.1745 8.71351C48.4068 8.03453 47.5567 7.33554 46.5772 6.57677C46.423 6.48721 46.2462 6.44767 46.0708 6.46359C45.9963 6.46333 45.9218 6.45897 45.8476 6.45052L45.7453 6.43641L45.7524 6.54084C45.7558 6.61546 45.7548 6.6901 45.7496 6.76445C45.7405 6.953 45.7311 7.14795 45.836 7.26805C46.693 8.24623 47.8837 9.48662 49.4977 10.4004Z" fill="#1E1E1E"></path>
  </g>
</svg>
