<?xml version="1.0" encoding="UTF-8"?>
<svg xmlns="http://www.w3.org/2000/svg" width="124" height="48" viewBox="0 0 124 48" fill="none">
  <path fill-rule="evenodd" clip-rule="evenodd" d="M16.9887 34.0782C18.6061 35.126 20.474 35.65 22.5925 35.65C24.711 35.65 26.5676 35.126 28.1621 34.0782C29.7795 33.0303 31.021 31.5952 31.8866 29.7728C32.7522 27.9505 33.185 25.9231 33.185 23.6907C33.185 21.4583 32.7522 19.4309 31.8866 17.6085C31.021 15.7862 29.7795 14.351 28.1621 13.3032C26.5676 12.2553 24.711 11.7314 22.5925 11.7314C20.474 11.7314 18.6061 12.2553 16.9887 13.3032C15.3942 14.351 14.1641 15.7862 13.2984 17.6085C12.4328 19.4309 12 21.4583 12 23.6907C12 25.9231 12.4328 27.9505 13.2984 29.7728C14.1641 31.5952 15.3942 33.0303 16.9887 34.0782ZM26.4195 32.9848C25.3489 33.8504 24.0732 34.2832 22.5925 34.2832C21.1118 34.2832 19.8248 33.8504 18.7314 32.9848C17.6607 32.1191 16.8407 30.9004 16.2712 29.3286C15.7017 27.7341 15.4169 25.8547 15.4169 23.6907C15.4169 21.5266 15.7017 19.6587 16.2712 18.0869C16.8407 16.4923 17.6607 15.2622 18.7314 14.3966C19.8248 13.531 21.1118 13.0982 22.5925 13.0982C24.0732 13.0982 25.3489 13.531 26.4195 14.3966C27.5129 15.2622 28.3444 16.4923 28.9139 18.0869C29.4834 19.6587 29.7681 21.5266 29.7681 23.6907C29.7681 25.8547 29.4834 27.7341 28.9139 29.3286C28.3444 30.9004 27.5129 32.1191 26.4195 32.9848ZM37.2483 20.4446C37.5672 20.9913 37.7266 21.8455 37.7266 23.0073V41.4588H40.8019V34.2832C41.4625 34.6021 42.1231 34.8527 42.7837 35.0349C43.4443 35.2172 44.2074 35.3083 45.0731 35.3083C47.1916 35.3083 48.7975 34.5224 49.8909 32.9506C51.0071 31.3788 51.5653 29.3742 51.5653 26.9368C51.5653 24.5221 51.0299 22.5289 49.9593 20.9571C48.8886 19.3626 47.3738 18.5653 45.4148 18.5653C44.253 18.5653 43.2963 18.7475 42.5445 19.112C41.7928 19.4765 41.2119 19.9207 40.8019 20.4446H40.631C40.4488 19.8979 40.1299 19.5106 39.6743 19.2828C39.2415 19.0322 38.5923 18.907 37.7266 18.907H34.6514V19.5903H35.3348C36.2915 19.5903 36.9293 19.8751 37.2483 20.4446ZM47.2599 32.028C46.5765 33.3037 45.5059 33.9415 44.048 33.9415C43.5696 33.9415 43.0798 33.8504 42.5787 33.6681C42.0775 33.4859 41.4853 33.2353 40.8019 32.9164V21.9822C41.6675 20.6154 42.8634 19.932 44.3897 19.932C45.6881 19.932 46.6676 20.5813 47.3282 21.8797C47.9889 23.1554 48.3192 24.841 48.3192 26.9368C48.3192 29.0553 47.9661 30.7524 47.2599 32.028ZM58.6867 16.2861C58.759 16.1931 58.8181 16.091 58.8639 15.9797C58.8116 16.0861 58.7524 16.1884 58.6867 16.2861ZM56.1127 23.0073C56.1127 21.8455 55.9533 20.9913 55.6343 20.4446C55.3154 19.8751 54.6776 19.5903 53.7209 19.5903H53.0375V18.907H56.1127C56.9556 18.907 57.582 19.0209 57.992 19.2487C58.4249 19.4537 58.7324 19.8409 58.9146 20.4104C59.0968 20.9799 59.188 21.8455 59.188 23.0073V34.9666H56.1127V23.0073ZM62.1297 34.9666C62.8131 35.1944 63.4396 35.3083 64.0091 35.3083C64.943 35.3083 65.7289 35.0691 66.3667 34.5907C67.0274 34.0896 67.631 33.3037 68.1777 32.233L70.2279 28.1327H72.8931V34.9666H75.9684V23.0073C75.9684 21.8455 76.1278 20.9913 76.4467 20.4446C76.7656 19.8751 77.4035 19.5903 78.3602 19.5903V18.907H70.3304C65.7745 18.907 63.4965 20.4446 63.4965 23.5198C63.4965 24.7271 63.8724 25.7295 64.6241 26.5267C65.3986 27.3012 66.3326 27.7796 67.426 27.9619L65.3758 31.5496C64.8747 32.3469 64.3849 32.9848 63.9065 33.4631C63.4282 33.9415 62.8359 34.2149 62.1297 34.2832V34.9666ZM71.8339 26.8343C71.401 26.9026 71.0138 26.9368 70.6721 26.9368C68.0524 26.9368 66.7426 25.7978 66.7426 23.5198C66.7426 21.2419 68.0524 20.1029 70.6721 20.1029C71.0138 20.1029 71.401 20.1371 71.8339 20.2054C72.2667 20.2737 72.6197 20.3535 72.8931 20.4446V26.5951C72.6197 26.6862 72.2667 26.7659 71.8339 26.8343ZM81.9058 23.0073C81.9058 21.8455 81.7464 20.9913 81.4275 20.4446C81.1085 19.8751 80.4707 19.5903 79.514 19.5903H79.0014V18.907H81.9058C82.7487 18.907 83.3751 19.0209 83.7851 19.2487C84.2179 19.4537 84.5255 19.8409 84.7077 20.4104C84.89 20.9799 84.9811 21.8455 84.9811 23.0073V26.2534H91.8149V18.907H94.8902V30.8663C94.8902 32.028 95.0497 32.8936 95.3686 33.4631C95.6875 34.0098 96.3253 34.2832 97.2821 34.2832H97.7946V34.9666H94.8902C94.0474 34.9666 93.4095 34.8641 92.9767 34.6591C92.5667 34.4313 92.2705 34.0326 92.0883 33.4631C91.9061 32.8936 91.8149 32.028 91.8149 30.8663V27.6202H84.9811V34.9666H81.9058V23.0073ZM101.92 34.8641C102.672 35.1602 103.412 35.3083 104.141 35.3083C105.326 35.3083 106.316 35.126 107.114 34.7616C107.911 34.3971 108.515 33.9529 108.925 33.429H109.096L110.292 34.9666H112V25.7408C112 22.9389 111.465 21.0482 110.394 20.0687C109.323 19.0664 107.866 18.5653 106.02 18.5653C104.904 18.5653 103.868 18.6678 102.911 18.8728C101.977 19.055 101.305 19.3512 100.895 19.7612C100.508 20.1484 100.269 20.5699 100.177 21.0255C100.086 21.4583 100.041 22.0619 100.041 22.8364H101.578C101.829 21.7658 102.262 21.0141 102.877 20.5813C103.492 20.1484 104.312 19.932 105.337 19.932C106.499 19.932 107.387 20.3421 108.002 21.1621C108.617 21.9822 108.925 23.5084 108.925 25.7408H107.9C105.303 25.7408 103.196 26.1053 101.578 26.8343C99.9838 27.5632 99.1865 28.7933 99.1865 30.5246C99.1865 31.6863 99.4484 32.6203 99.9724 33.3265C100.519 34.0326 101.168 34.5452 101.92 34.8641ZM107.558 33.2239C107.057 33.5884 106.43 33.7707 105.679 33.7707C104.767 33.7707 103.993 33.4973 103.355 32.9506C102.74 32.3811 102.433 31.5724 102.433 30.5246C102.433 29.4995 102.922 28.6794 103.902 28.0644C104.881 27.4265 106.214 27.1076 107.9 27.1076H108.925V31.7205C108.515 32.3583 108.059 32.8595 107.558 33.2239Z" fill="#1E1E1E"></path>
  <path d="M86.8534 13.8399C86.7171 13.8399 86.5689 13.8133 86.4088 13.7599V13.5376C86.7052 13.5258 86.9571 13.3983 87.1646 13.1553C87.378 12.9123 87.5499 12.4588 87.6803 11.795C87.8107 11.1252 87.8759 10.1768 87.8759 8.94983C87.8759 8.64754 87.8344 8.42526 87.7514 8.283C87.6684 8.13482 87.5024 8.06072 87.2535 8.06072H87.1646V7.8829H91.5657V13.751H90.7655V8.23855H88.5427V8.94983C88.5427 10.2301 88.4656 11.2319 88.3115 11.955C88.1634 12.6722 87.9648 13.1672 87.7158 13.4398C87.4728 13.7066 87.1853 13.8399 86.8534 13.8399Z" fill="#F18B5E"></path>
  <path d="M93.9232 13.751C93.7039 13.751 93.5379 13.7243 93.4253 13.671C93.3186 13.6117 93.2415 13.508 93.1941 13.3598C93.1467 13.2116 93.123 12.9864 93.123 12.6841V7.8829H93.9232V12.6841C93.9232 12.9864 93.9647 13.2116 94.0477 13.3598C94.1307 13.5021 94.2966 13.5732 94.5456 13.5732H94.7234V13.751H93.9232Z" fill="#F18B5E"></path>
  <path d="M100.477 15.3514C100.406 14.7587 100.285 14.3438 100.113 14.1067C99.9409 13.8696 99.6919 13.751 99.3659 13.751H95.8095V8.94983C95.8095 8.64754 95.768 8.42526 95.685 8.283C95.602 8.13482 95.4361 8.06072 95.1871 8.06072H95.0093V7.8829H95.8095C96.0288 7.8829 96.1918 7.91254 96.2985 7.97181C96.4111 8.02516 96.4911 8.12593 96.5386 8.27411C96.586 8.4223 96.6097 8.64754 96.6097 8.94983V13.3954H99.277V7.8829H100.077V13.3954H100.566C100.655 13.3954 100.729 13.425 100.788 13.4843C100.848 13.5436 100.877 13.6176 100.877 13.7066V15.3514H100.477Z" fill="#F18B5E"></path>
  <path d="M101.992 8.94983C101.992 8.64754 101.95 8.42526 101.867 8.283C101.784 8.13482 101.618 8.06072 101.369 8.06072H101.191V7.8829H104.979C105.483 7.8829 105.735 8.12 105.735 8.59419V9.26102H105.557C105.557 8.57937 105.186 8.23855 104.446 8.23855H102.792V10.5502H105.192V10.9059H102.792V13.3954H104.348C104.757 13.3954 105.077 13.3213 105.308 13.1731C105.539 13.0249 105.723 12.773 105.859 12.4174L106.037 12.4618L105.726 13.3065C105.619 13.6028 105.397 13.751 105.059 13.751H101.992V8.94983Z" fill="#F18B5E"></path>
  <path d="M107.236 8.94983C107.236 8.64754 107.194 8.42526 107.111 8.283C107.028 8.13482 106.862 8.06072 106.614 8.06072H106.436V7.8829H107.236C107.455 7.8829 107.618 7.91254 107.725 7.97181C107.838 8.02516 107.918 8.12593 107.965 8.27411C108.012 8.4223 108.036 8.64754 108.036 8.94983V12.9508L110.881 7.8829H111.681V13.751H110.881V8.6831L108.036 13.751H107.236V8.94983ZM109.37 7.52726C108.836 7.52726 108.451 7.26053 108.214 6.72706L108.392 6.5937C108.605 6.86043 108.931 6.9938 109.37 6.9938C109.808 6.9938 110.134 6.86043 110.348 6.5937L110.526 6.72706C110.289 7.26053 109.903 7.52726 109.37 7.52726Z" fill="#F18B5E"></path>
  <path d="M56.3916 16.3443C55.2254 15.617 54.4486 14.3226 54.4486 12.8465C54.4486 12.0881 55.0633 11.4734 55.8213 11.4734C56.5792 11.4734 57.1939 12.0881 57.1939 12.8465C57.1939 13.6049 57.8086 14.2196 58.5666 14.2196C59.3245 14.2196 59.9392 13.6049 59.9392 12.8465C59.9392 10.5713 58.0956 8.72718 55.8217 8.72718C53.5479 8.72718 51.7042 10.5713 51.7042 12.8465C51.7042 13.3537 51.761 13.8475 51.8653 14.3235M54.0679 15.9941C53.4431 15.1026 53.0756 14.0178 53.0756 12.8465C53.0756 11.3297 54.3045 10.1003 55.8205 10.1003C57.3364 10.1003 58.5653 11.3297 58.5653 12.8465M58.7141 15.5854C58.6646 15.5882 58.6161 15.5928 58.5662 15.5928C57.0503 15.5928 55.8214 14.3634 55.8214 12.8466M59.6534 9.09059C58.7174 8.02734 57.3488 7.35406 55.8211 7.35406C54.2932 7.35406 52.9247 8.02734 51.9887 9.09059" stroke="#F18B5E" stroke-width="0.998917" stroke-linecap="round" stroke-linejoin="round"></path>
  <mask id="mask0_167_649" style="mask-type:luminance" maskUnits="userSpaceOnUse" x="43" y="0" width="26" height="24">
    <path d="M68.1113 1.8774e-07L43 0.41543L43.7516 23.4843L68.8628 23.0688L68.1113 1.8774e-07Z" fill="white"></path>
  </mask>
  <g mask="url(#mask0_167_649)">
    <path d="M48.8366 12.3409C48.8842 12.2755 48.9178 12.2004 48.935 12.1206C48.9522 12.0407 48.9528 11.9578 48.9367 11.8771C48.8592 11.3444 48.3979 11.3547 48.0645 11.362L48.0392 11.3622C47.6938 11.3695 47.3522 11.3984 46.9562 11.4318C46.776 11.4471 46.5846 11.4634 46.3783 11.4786C46.246 11.48 46.1023 11.4785 45.9505 11.477C45.4833 11.4635 45.0163 11.478 44.5519 11.5204C44.3043 11.5476 43.9259 11.8344 43.8916 12.0791C43.8802 12.1352 43.881 12.1934 43.894 12.2496C43.907 12.3058 43.9317 12.3587 43.9666 12.4047C44.0988 12.568 44.3545 12.596 44.5835 12.6094C44.7782 12.6208 44.9724 12.6389 45.1674 12.6567C45.4958 12.687 45.8357 12.7182 46.1709 12.7168L46.2657 12.7159C46.8341 12.7102 47.4608 12.6754 48.2275 12.6071C48.3423 12.607 48.4554 12.5834 48.5601 12.5377C48.6648 12.4919 48.7588 12.4249 48.8366 12.3409Z" fill="#F79F79" fill-opacity="0.82"></path>
    <path d="M54.9075 1.07142C54.9317 1.74928 54.9657 2.43784 54.9979 3.10315L55.0328 3.82319C55.0338 3.85252 55.0327 3.88373 55.0313 3.91512C55.0175 4.00417 55.032 4.09599 55.0725 4.17655C55.109 4.23146 55.1451 4.2923 55.1817 4.35405C55.3142 4.57676 55.4512 4.80717 55.6483 4.86684C55.7034 4.88415 55.7604 4.89271 55.8176 4.89225C55.8969 4.89123 55.9742 4.86806 56.0414 4.82512C56.2461 4.69545 56.3368 4.41398 56.3767 4.20079C56.4145 3.96312 56.4333 3.72226 56.4331 3.48068C56.4353 3.39464 56.4375 3.30862 56.4412 3.22317L56.5364 3.19046L56.5193 3.11919C56.4695 2.91053 56.422 2.70091 56.3745 2.49143C56.2503 1.94199 56.1214 1.37401 55.9484 0.828848C55.8868 0.691459 55.7933 0.572087 55.6766 0.481871C55.5599 0.391656 55.4238 0.333537 55.281 0.312934C55.2293 0.310881 55.1779 0.31953 55.1298 0.338387C55.0816 0.357245 55.0376 0.38594 55.0003 0.422832C54.8784 0.559252 54.8914 0.780517 54.9027 0.975734C54.9046 1.00938 54.9065 1.04163 54.9075 1.07142Z" fill="#F79F79" fill-opacity="0.82"></path>
    <path d="M60.8 6.87031C61.0025 6.86753 61.2012 6.8194 61.3818 6.7293C61.5624 6.6392 61.7204 6.50942 61.8443 6.34926C62.4488 5.66961 63.0387 4.95721 63.6095 4.26823L64.0059 3.79035C64.1199 3.66654 64.2041 3.51757 64.2519 3.35481C64.2733 3.26506 64.304 2.92465 64.1605 2.85298C63.9875 2.78661 63.7982 2.78224 63.6244 2.84054C63.5195 2.88451 63.429 2.9571 63.3628 3.05034C63.3431 3.07327 63.3234 3.09591 63.3038 3.1167C63.1029 3.32948 62.9012 3.54172 62.6988 3.75342C62.1217 4.35901 61.5252 4.98523 60.9605 5.62238C60.7952 5.82973 60.6585 6.05901 60.5542 6.30414C60.4902 6.43565 60.424 6.57152 60.3446 6.71632L60.2908 6.81388L60.4006 6.83405C60.5324 6.85931 60.6662 6.87146 60.8 6.87031Z" fill="#F79F79" fill-opacity="0.82"></path>
    <path d="M67.8413 11.0071C67.6191 10.9467 67.3909 10.9151 67.1622 10.9131C66.3639 10.9442 65.5542 10.9993 64.7712 11.0525C64.4867 11.0719 64.2024 11.0908 63.918 11.1094C63.8988 11.1105 63.8781 11.1098 63.8573 11.11C63.7798 11.0993 63.702 11.1181 63.6385 11.1627C63.5976 11.2015 63.5513 11.2404 63.5043 11.28C63.3398 11.4187 63.1697 11.5622 63.1471 11.7443C63.1364 11.802 63.1387 11.8618 63.154 11.9191C63.1692 11.9763 63.1969 12.0296 63.2351 12.0748C63.3072 12.1391 63.3916 12.1873 63.4826 12.2164C63.5738 12.2454 63.6696 12.2546 63.7636 12.2433L63.7846 12.2431C64.0965 12.236 64.4085 12.2327 64.7206 12.2292C65.4285 12.2214 66.1608 12.2134 66.8782 12.1629C67.3757 12.128 67.9308 11.986 68.276 11.1986L68.3182 11.1024L68.2149 11.0845C68.0814 11.0608 67.9578 11.0333 67.8413 11.0071Z" fill="#F79F79" fill-opacity="0.82"></path>
    <path d="M50.2797 7.73066L50.3712 7.78241L50.3937 7.67978C50.5683 6.88248 50.5529 6.68226 49.9816 6.17823C49.2735 5.55335 48.4894 4.91005 47.5861 4.21174C47.4439 4.12932 47.2807 4.09293 47.119 4.10758C47.0503 4.10734 46.9816 4.10333 46.9132 4.09555L46.8188 4.08257L46.8254 4.17867C46.8285 4.24735 46.8276 4.31604 46.8228 4.38447C46.8144 4.55799 46.8057 4.73741 46.9025 4.84794C47.6929 5.74818 48.791 6.88973 50.2797 7.73066Z" fill="#F79F79" fill-opacity="0.82"></path>
  </g>
</svg>
