<?xml version="1.0" encoding="UTF-8"?>
<svg xmlns="http://www.w3.org/2000/svg" width="24" height="24" viewBox="0 0 24 24" fill="none">
  <g id="Filled/Instagram Icon">
    <path id="Instagram" fill-rule="evenodd" clip-rule="evenodd" d="M1.19995 11.9997C1.19995 7.68554 1.19995 5.52846 2.22798 3.97477C2.68705 3.28097 3.28122 2.6868 3.97501 2.22774C5.5287 1.19971 7.68578 1.19971 12 1.19971C16.3141 1.19971 18.4712 1.19971 20.0249 2.22774C20.7187 2.6868 21.3129 3.28097 21.7719 3.97477C22.8 5.52846 22.8 7.68554 22.8 11.9997C22.8 16.3139 22.8 18.471 21.7719 20.0246C21.3129 20.7184 20.7187 21.3126 20.0249 21.7717C18.4712 22.7997 16.3141 22.7997 12 22.7997C7.68578 22.7997 5.5287 22.7997 3.97501 21.7717C3.28122 21.3126 2.68705 20.7184 2.22798 20.0246C1.19995 18.471 1.19995 16.3139 1.19995 11.9997ZM17.5915 12.0001C17.5915 15.088 15.0882 17.5913 12.0002 17.5913C8.91221 17.5913 6.4089 15.088 6.4089 12.0001C6.4089 8.91207 8.91221 6.40876 12.0002 6.40876C15.0882 6.40876 17.5915 8.91207 17.5915 12.0001ZM12.0002 15.6997C14.0434 15.6997 15.6998 14.0433 15.6998 12.0001C15.6998 9.95682 14.0434 8.30045 12.0002 8.30045C9.95696 8.30045 8.30059 9.95682 8.30059 12.0001C8.30059 14.0433 9.95696 15.6997 12.0002 15.6997ZM17.8123 7.44164C18.5379 7.44164 19.1261 6.85344 19.1261 6.12785C19.1261 5.40227 18.5379 4.81406 17.8123 4.81406C17.0867 4.81406 16.4985 5.40227 16.4985 6.12785C16.4985 6.85344 17.0867 7.44164 17.8123 7.44164Z" fill="#D9E9EB"></path>
  </g>
</svg>
