<?xml version="1.0" encoding="UTF-8"?>
<svg xmlns="http://www.w3.org/2000/svg" width="124" height="48" viewBox="0 0 124 48" fill="none">
  <path fill-rule="evenodd" clip-rule="evenodd" d="M13.4103 38.9412C15.1643 40.0776 17.1901 40.6458 19.4876 40.6458C21.7851 40.6458 23.7985 40.0776 25.5278 38.9412C27.2819 37.8048 28.6283 36.2484 29.567 34.272C30.5058 32.2957 30.9752 30.097 30.9752 27.6759C30.9752 25.2549 30.5058 23.0562 29.567 21.0798C28.6283 19.1035 27.2819 17.5471 25.5278 16.4107C23.7985 15.2743 21.7851 14.7061 19.4876 14.7061C17.1901 14.7061 15.1643 15.2743 13.4103 16.4107C11.681 17.5471 10.3469 19.1035 9.40816 21.0798C8.46939 23.0562 8 25.2549 8 27.6759C8 30.097 8.46939 32.2957 9.40816 34.272C10.3469 36.2484 11.681 37.8048 13.4103 38.9412ZM23.6379 37.7554C22.4768 38.6941 21.0934 39.1635 19.4876 39.1635C17.8818 39.1635 16.486 38.6941 15.3002 37.7554C14.1391 36.8166 13.2497 35.4949 12.6321 33.7903C12.0145 32.061 11.7057 30.0229 11.7057 27.6759C11.7057 25.329 12.0145 23.3032 12.6321 21.5986C13.2497 19.8693 14.1391 18.5353 15.3002 17.5965C16.486 16.6577 17.8818 16.1883 19.4876 16.1883C21.0934 16.1883 22.4768 16.6577 23.6379 17.5965C24.8238 18.5353 25.7255 19.8693 26.3431 21.5986C26.9607 23.3032 27.2695 25.329 27.2695 27.6759C27.2695 30.0229 26.9607 32.061 26.3431 33.7903C25.7255 35.4949 24.8238 36.8166 23.6379 37.7554ZM35.3817 24.1556C35.7276 24.7485 35.9005 25.6749 35.9005 26.9348V46.9454H39.2356V39.1635C39.9521 39.5094 40.6685 39.7811 41.3849 39.9788C42.1014 40.1764 42.929 40.2752 43.8677 40.2752C46.1652 40.2752 47.9069 39.4229 49.0927 37.7183C50.3032 36.0137 50.9085 33.8397 50.9085 31.1963C50.9085 28.5777 50.328 26.416 49.1668 24.7114C48.0057 22.9821 46.3629 22.1174 44.2383 22.1174C42.9784 22.1174 41.9408 22.3151 41.1255 22.7103C40.3103 23.1056 39.6803 23.5873 39.2356 24.1556H39.0504C38.8527 23.5626 38.5069 23.1427 38.0128 22.8956C37.5434 22.6239 36.8393 22.488 35.9005 22.488H32.5654V23.2291H33.3066C34.3442 23.2291 35.0359 23.5379 35.3817 24.1556ZM46.2394 36.7178C45.4982 38.1012 44.3371 38.793 42.756 38.793C42.2372 38.793 41.7061 38.6941 41.1626 38.4965C40.6191 38.2989 39.9768 38.0271 39.2356 37.6813V25.8231C40.1744 24.3408 41.4714 23.5997 43.1266 23.5997C44.5348 23.5997 45.597 24.3038 46.3135 25.7119C47.0299 27.0954 47.3881 28.9235 47.3881 31.1963C47.3881 33.4938 47.0052 35.3343 46.2394 36.7178ZM55.8402 26.9348C55.8402 25.6749 55.6673 24.7485 55.3214 24.1556C54.9756 23.5379 54.2839 23.2291 53.2463 23.2291H52.5051V22.488H55.8402C56.7543 22.488 57.4337 22.6115 57.8784 22.8586C58.3477 23.0809 58.6813 23.5009 58.8789 24.1185C59.0765 24.7361 59.1753 25.6749 59.1753 26.9348V39.9047H55.8402V26.9348ZM62.3657 39.9047C63.1068 40.1517 63.7862 40.2752 64.4038 40.2752C65.4167 40.2752 66.269 40.0158 66.9607 39.497C67.6772 38.9535 68.3318 38.1012 68.9247 36.9401L71.1481 32.4933H74.0386V39.9047H77.3737V26.9348C77.3737 25.6749 77.5466 24.7485 77.8925 24.1556C78.2383 23.5379 78.9301 23.2291 79.9677 23.2291V22.488H71.2593C66.3184 22.488 63.848 24.1556 63.848 27.4907C63.848 28.8 64.2556 29.887 65.0708 30.7516C65.9108 31.5916 66.9237 32.1104 68.1095 32.308L65.8861 36.199C65.3426 37.0636 64.8114 37.7554 64.2926 38.2742C63.7739 38.793 63.1315 39.0894 62.3657 39.1635V39.9047ZM72.8898 31.0852C72.4204 31.1593 72.0005 31.1963 71.6299 31.1963C68.7889 31.1963 67.3684 29.9611 67.3684 27.4907C67.3684 25.0202 68.7889 23.785 71.6299 23.785C72.0005 23.785 72.4204 23.822 72.8898 23.8962C73.3592 23.9703 73.7421 24.0567 74.0386 24.1556V30.8258C73.7421 30.9246 73.3592 31.011 72.8898 31.0852ZM83.8129 26.9348C83.8129 25.6749 83.6399 24.7485 83.2941 24.1556C82.9482 23.5379 82.2565 23.2291 81.2189 23.2291H80.663V22.488H83.8129C84.7269 22.488 85.4063 22.6115 85.851 22.8586C86.3204 23.0809 86.6539 23.5009 86.8515 24.1185C87.0492 24.7361 87.148 25.6749 87.148 26.9348V30.4552H94.5593V22.488H97.8944V35.4579C97.8944 36.7178 98.0674 37.6566 98.4132 38.2742C98.7591 38.8671 99.4508 39.1635 100.488 39.1635H101.044V39.9047H97.8944C96.9804 39.9047 96.2886 39.7935 95.8193 39.5712C95.3746 39.3241 95.0534 38.8918 94.8558 38.2742C94.6581 37.6566 94.5593 36.7178 94.5593 35.4579V31.9375H87.148V39.9047H83.8129V26.9348ZM105.518 39.7935C106.334 40.1147 107.136 40.2752 107.927 40.2752C109.212 40.2752 110.286 40.0776 111.151 39.6823C112.016 39.2871 112.67 38.8053 113.115 38.2371H113.3L114.597 39.9047H116.45V29.8993C116.45 26.8607 115.869 24.8102 114.708 23.7479C113.547 22.6609 111.966 22.1174 109.965 22.1174C108.755 22.1174 107.631 22.2286 106.593 22.4509C105.58 22.6486 104.851 22.9697 104.407 23.4144C103.987 23.8344 103.727 24.2914 103.628 24.7855C103.53 25.2549 103.48 25.9096 103.48 26.7495H105.148C105.419 25.5884 105.889 24.7732 106.556 24.3038C107.223 23.8344 108.112 23.5997 109.224 23.5997C110.484 23.5997 111.447 24.0444 112.114 24.9337C112.781 25.8231 113.115 27.4783 113.115 29.8993H112.003C109.187 29.8993 106.902 30.2946 105.148 31.0852C103.418 31.8757 102.554 33.2097 102.554 35.0873C102.554 36.3472 102.838 37.3601 103.406 38.1259C103.999 38.8918 104.703 39.4476 105.518 39.7935ZM111.633 38.0148C111.089 38.41 110.41 38.6077 109.595 38.6077C108.606 38.6077 107.766 38.3112 107.075 37.7183C106.408 37.1007 106.074 36.2237 106.074 35.0873C106.074 33.9756 106.605 33.0862 107.668 32.4192C108.73 31.7275 110.175 31.3816 112.003 31.3816H113.115V36.3843C112.67 37.076 112.176 37.6195 111.633 38.0148Z" fill="white"></path>
  <path d="M89.1785 17.005C89.0307 17.005 88.87 16.9761 88.6964 16.9182V16.6771C89.0178 16.6643 89.291 16.5261 89.516 16.2625C89.7474 15.999 89.9338 15.5072 90.0753 14.7872C90.2167 14.0608 90.2874 13.0323 90.2874 11.7017C90.2874 11.3738 90.2424 11.1328 90.1524 10.9785C90.0624 10.8178 89.8824 10.7374 89.6124 10.7374H89.516V10.5446H94.289V16.9086H93.4212V10.9303H91.0106V11.7017C91.0106 13.0902 90.927 14.1766 90.7599 14.9608C90.5992 15.7386 90.3838 16.2754 90.1138 16.5711C89.8503 16.8603 89.5385 17.005 89.1785 17.005Z" fill="white"></path>
  <path d="M96.8457 16.9086C96.6079 16.9086 96.4279 16.8796 96.3058 16.8218C96.19 16.7575 96.1065 16.645 96.0551 16.4843C96.0036 16.3236 95.9779 16.0793 95.9779 15.7515V10.5446H96.8457V15.7515C96.8457 16.0793 96.8907 16.3236 96.9807 16.4843C97.0707 16.6386 97.2507 16.7157 97.5207 16.7157H97.7135V16.9086H96.8457Z" fill="white"></path>
  <path d="M103.954 18.6442C103.877 18.0014 103.745 17.5514 103.558 17.2943C103.372 17.0371 103.102 16.9086 102.748 16.9086H98.8914V11.7017C98.8914 11.3738 98.8464 11.1328 98.7564 10.9785C98.6664 10.8178 98.4864 10.7374 98.2165 10.7374H98.0236V10.5446H98.8914C99.1293 10.5446 99.306 10.5767 99.4217 10.641C99.5439 10.6989 99.6307 10.8081 99.6821 10.9689C99.7335 11.1296 99.7592 11.3738 99.7592 11.7017V16.5229H102.652V10.5446H103.52V16.5229H104.05C104.147 16.5229 104.227 16.555 104.291 16.6193C104.355 16.6836 104.388 16.7639 104.388 16.8603V18.6442H103.954Z" fill="white"></path>
  <path d="M105.596 11.7017C105.596 11.3738 105.551 11.1328 105.461 10.9785C105.371 10.8178 105.191 10.7374 104.921 10.7374H104.728V10.5446H108.836C109.382 10.5446 109.655 10.8017 109.655 11.316V12.0392H109.462C109.462 11.2999 109.061 10.9303 108.257 10.9303H106.464V13.4373H109.067V13.823H106.464V16.5229H108.151C108.595 16.5229 108.942 16.4425 109.192 16.2818C109.443 16.1211 109.642 15.8479 109.79 15.4622L109.983 15.5104L109.646 16.4264C109.53 16.7479 109.289 16.9086 108.923 16.9086H105.596V11.7017Z" fill="white"></path>
  <path d="M111.283 11.7017C111.283 11.3738 111.238 11.1328 111.148 10.9785C111.058 10.8178 110.878 10.7374 110.608 10.7374H110.416V10.5446H111.283C111.521 10.5446 111.698 10.5767 111.814 10.641C111.936 10.6989 112.023 10.8081 112.074 10.9689C112.125 11.1296 112.151 11.3738 112.151 11.7017V16.0407L115.237 10.5446H116.105V16.9086H115.237V11.4124L112.151 16.9086H111.283V11.7017ZM113.598 10.1589C113.019 10.1589 112.601 9.86962 112.344 9.29108L112.537 9.14644C112.768 9.43571 113.122 9.58035 113.598 9.58035C114.073 9.58035 114.427 9.43571 114.658 9.14644L114.851 9.29108C114.594 9.86962 114.176 10.1589 113.598 10.1589Z" fill="white"></path>
  <path d="M56.143 19.7252C54.8782 18.9365 54.0358 17.5327 54.0358 15.9319C54.0358 15.1094 54.7025 14.4427 55.5244 14.4427C56.3465 14.4427 57.0131 15.1094 57.0131 15.9319C57.0131 16.7544 57.6797 17.421 58.5017 17.421C59.3237 17.421 59.9904 16.7544 59.9904 15.9319C59.9904 13.4644 57.9909 11.4645 55.5249 11.4645C53.0589 11.4645 51.0595 13.4644 51.0595 15.9319C51.0595 16.4819 51.1211 17.0175 51.2342 17.5337M53.6229 19.3455C52.9453 18.3786 52.5468 17.2021 52.5468 15.9319C52.5468 14.2869 53.8795 12.9536 55.5236 12.9536C57.1676 12.9536 58.5003 14.2869 58.5003 15.9319M58.6617 18.9022C58.6081 18.9052 58.5555 18.9102 58.5014 18.9102C56.8574 18.9102 55.5246 17.5769 55.5246 15.9319M59.6804 11.8586C58.6653 10.7055 57.1811 9.97531 55.5242 9.97531C53.8673 9.97531 52.3831 10.7055 51.368 11.8586" stroke="white" stroke-width="1.08333" stroke-linecap="round" stroke-linejoin="round"></path>
  <mask id="mask0_172_1650" style="mask-type:luminance" maskUnits="userSpaceOnUse" x="41" y="2" width="29" height="26">
    <path d="M68.8109 2.1003L41.5776 2.55079L42.3926 27.569L69.6259 27.1185L68.8109 2.1003Z" fill="white"></path>
  </mask>
  <g mask="url(#mask0_172_1650)">
    <path d="M47.9499 15.3836C48.0016 15.3127 48.0379 15.2313 48.0566 15.1447C48.0753 15.0581 48.0759 14.9682 48.0584 14.8806C47.9744 14.3029 47.4741 14.3141 47.1126 14.3219L47.0851 14.3222C46.7105 14.3301 46.34 14.3614 45.9107 14.3977C45.7152 14.4143 45.5076 14.4319 45.2839 14.4485C45.1404 14.4499 44.9846 14.4483 44.8199 14.4467C44.3133 14.4321 43.8068 14.4478 43.3031 14.4938C43.0346 14.5233 42.6243 14.8343 42.587 15.0997C42.5747 15.1606 42.5756 15.2237 42.5897 15.2846C42.6037 15.3456 42.6306 15.403 42.6684 15.4529C42.8118 15.63 43.089 15.6603 43.3374 15.6749C43.5485 15.6873 43.7592 15.7068 43.9706 15.7262C44.3268 15.759 44.6954 15.7929 45.059 15.7914L45.1618 15.7904C45.7782 15.7842 46.4578 15.7465 47.2893 15.6724C47.4138 15.6723 47.5365 15.6467 47.65 15.5971C47.7636 15.5474 47.8656 15.4748 47.9499 15.3836Z" fill="white"></path>
    <path d="M54.5337 3.16195C54.5599 3.89711 54.5967 4.64385 54.6316 5.36539L54.6695 6.14627C54.6705 6.17807 54.6694 6.21193 54.6679 6.24597C54.6529 6.34254 54.6686 6.44212 54.7125 6.52949C54.7521 6.58904 54.7912 6.65502 54.8309 6.72199C54.9746 6.96352 55.1233 7.2134 55.337 7.27812C55.3967 7.29689 55.4586 7.30617 55.5206 7.30567C55.6066 7.30457 55.6903 7.27944 55.7633 7.23287C55.9852 7.09224 56.0837 6.78699 56.1269 6.55578C56.1678 6.29802 56.1883 6.03681 56.1881 5.77482C56.1904 5.6815 56.1928 5.58821 56.1969 5.49555L56.3 5.46007L56.2815 5.38278C56.2275 5.15648 56.176 4.92915 56.1245 4.70197C55.9898 4.1061 55.8501 3.49012 55.6624 2.89889C55.5956 2.74989 55.4942 2.62043 55.3677 2.52259C55.2411 2.42475 55.0935 2.36172 54.9387 2.33937C54.8826 2.33715 54.8269 2.34653 54.7746 2.36698C54.7224 2.38743 54.6747 2.41855 54.6342 2.45856C54.5021 2.60651 54.5161 2.84647 54.5284 3.05818C54.5304 3.09468 54.5325 3.12965 54.5337 3.16195Z" fill="white"></path>
    <path d="M60.9244 9.45087C61.144 9.44786 61.3595 9.39566 61.5554 9.29794C61.7512 9.20023 61.9225 9.05948 62.057 8.88578C62.7125 8.14868 63.3522 7.37607 63.9712 6.62887L64.4011 6.11059C64.5248 5.97632 64.6161 5.81477 64.6679 5.63825C64.6912 5.5409 64.7245 5.17172 64.5688 5.094C64.3812 5.02203 64.1759 5.01729 63.9875 5.08051C63.8737 5.1282 63.7755 5.20692 63.7038 5.30804C63.6823 5.33291 63.661 5.35746 63.6397 5.38001C63.4218 5.61077 63.2031 5.84095 62.9837 6.07054C62.3578 6.72732 61.7108 7.40646 61.0985 8.09746C60.9192 8.32234 60.771 8.571 60.6578 8.83684C60.5884 8.97946 60.5167 9.12682 60.4305 9.28386L60.3722 9.38966L60.4912 9.41154C60.6342 9.43893 60.7793 9.45211 60.9244 9.45087Z" fill="white"></path>
    <path d="M68.5613 13.9372C68.3203 13.8717 68.0728 13.8375 67.8248 13.8353C66.959 13.869 66.081 13.9288 65.2318 13.9865C64.9233 14.0075 64.6149 14.028 64.3065 14.0482C64.2856 14.0494 64.2632 14.0486 64.2407 14.0489C64.1566 14.0372 64.0722 14.0576 64.0034 14.106C63.959 14.1481 63.9088 14.1903 63.8578 14.2332C63.6794 14.3836 63.495 14.5392 63.4705 14.7367C63.4588 14.7994 63.4613 14.8642 63.4779 14.9263C63.4944 14.9884 63.5245 15.0462 63.5659 15.0952C63.644 15.1649 63.7356 15.2173 63.8343 15.2488C63.9332 15.2803 64.0371 15.2902 64.1391 15.278L64.1618 15.2777C64.5 15.2701 64.8384 15.2665 65.1769 15.2627C65.9446 15.2542 66.7388 15.2456 67.5168 15.1908C68.0563 15.1529 68.6583 14.999 69.0328 14.1449L69.0785 14.0406L68.9664 14.0212C68.8216 13.9955 68.6877 13.9656 68.5613 13.9372Z" fill="white"></path>
    <path d="M49.5142 10.3838L49.6135 10.4399L49.6379 10.3286C49.8273 9.46396 49.8106 9.24682 49.1909 8.70021C48.423 8.02254 47.5726 7.32489 46.5929 6.56759C46.4387 6.4782 46.2618 6.43874 46.0864 6.45463C46.0118 6.45437 45.9373 6.45001 45.8632 6.44158L45.7608 6.4275L45.7679 6.53172C45.7713 6.6062 45.7703 6.6807 45.7651 6.75491C45.756 6.94309 45.7466 7.13767 45.8516 7.25754C46.7088 8.23383 47.8997 9.47182 49.5142 10.3838Z" fill="white"></path>
  </g>
</svg>
