<?xml version="1.0" encoding="UTF-8"?>
<svg xmlns="http://www.w3.org/2000/svg" width="28" height="28" viewBox="0 0 28 28" fill="none">
  <g clip-path="url(#clip0_421_10726)">
    <path fill-rule="evenodd" clip-rule="evenodd" d="M14.0042 0C21.733 0 28.0084 6.26703 28.0084 14.0042C28.0084 21.733 21.7414 28.0084 14.0042 28.0084C6.27543 28.0084 0 21.7414 0 14.0042C0 6.27543 6.26703 0 14.0042 0ZM10.7279 6.31743H17.2805C19.742 6.31743 21.7498 8.30843 21.7498 10.7279V17.2637C21.7498 19.6916 19.742 21.6742 17.2805 21.6742H10.7279C8.26643 21.6742 6.25863 19.6916 6.25863 17.2637V10.7279C6.25863 8.30003 8.27483 6.31743 10.7279 6.31743ZM13.9622 9.85419C16.3564 9.85419 18.297 11.7948 18.297 14.189C18.297 16.5833 16.3564 18.5239 13.9622 18.5239C11.568 18.5239 9.62736 16.5833 9.62736 14.189C9.62736 11.7948 11.568 9.85419 13.9622 9.85419ZM13.9622 11.3159C15.5416 11.3159 16.8269 12.6013 16.8269 14.1806C16.8269 15.76 15.5416 17.0453 13.9622 17.0453C12.3744 17.0453 11.0975 15.76 11.0975 14.1806C11.0975 12.6013 12.3828 11.3159 13.9622 11.3159ZM18.1542 9.24933C18.5407 9.24933 18.8599 9.56016 18.8599 9.955C18.8599 10.3414 18.5491 10.6607 18.1542 10.6607C17.7678 10.6607 17.4485 10.3498 17.4485 9.955C17.4485 9.56856 17.7594 9.24933 18.1542 9.24933ZM11.2655 7.56916H16.7429C18.8011 7.56916 20.4812 9.24092 20.4812 11.2907V16.8017C20.4812 18.8515 18.8011 20.5233 16.7429 20.5233H11.2655C9.20732 20.5233 7.52715 18.8515 7.52715 16.8017V11.2907C7.52715 9.24092 9.20732 7.56916 11.2655 7.56916Z" fill="black"></path>
  </g>
  <defs>
    <clipPath id="clip0_421_10726">
      <rect width="28" height="28" fill="white"></rect>
    </clipPath>
  </defs>
</svg>
