<?xml version="1.0" encoding="UTF-8"?>
<svg xmlns="http://www.w3.org/2000/svg" width="28" height="28" viewBox="0 0 28 28" fill="none">
  <g clip-path="url(#clip0_421_10728)">
    <path fill-rule="evenodd" clip-rule="evenodd" d="M14 0C21.732 0 28 6.26798 28 14C28 21.732 21.732 28 14 28C6.26798 28 0 21.732 0 14C0 6.26798 6.26798 0 14 0ZM20.7384 7.6612L18.2406 20.2544C18.2406 20.2544 17.8914 21.1276 16.9308 20.7083L11.1843 16.1846C11.1843 16.1846 17.577 10.4382 17.839 10.1937C18.101 9.94919 18.0136 9.89686 18.0136 9.89686C18.031 9.59992 17.542 9.89686 17.542 9.89686L9.07097 15.2765L5.54281 14.0887C5.54281 14.0887 5.00135 13.8965 4.94902 13.4774C4.8966 13.0581 5.56029 12.8311 5.56029 12.8311L19.5857 7.32932C19.5857 7.32932 20.7384 6.8228 20.7384 7.6612ZM13.3769 17.9839L11.097 20.0624C11.097 20.0624 10.9188 20.1976 10.7238 20.1129L11.1604 16.2519L13.3769 17.9839Z" fill="black"></path>
  </g>
  <defs>
    <clipPath id="clip0_421_10728">
      <rect width="28" height="28" fill="white"></rect>
    </clipPath>
  </defs>
</svg>
