<?xml version="1.0" encoding="UTF-8"?>
<svg xmlns="http://www.w3.org/2000/svg" width="28" height="28" viewBox="0 0 28 28" fill="none">
  <g clip-path="url(#clip0_421_10730)">
    <path fill-rule="evenodd" clip-rule="evenodd" d="M14.0042 0C21.733 0 28.0084 6.26703 28.0084 14.0042C28.0084 21.733 21.7414 28.0084 14.0042 28.0084C6.27543 28.0084 0 21.7414 0 14.0042C0 6.27543 6.26703 0 14.0042 0ZM17.0369 6.25023C17.2973 8.45125 18.5239 9.76178 20.6493 9.89619V12.366C19.4143 12.4836 18.3306 12.0804 17.0705 11.3243V15.9448C17.0705 21.8254 10.6607 23.6568 8.09001 19.4479C6.43504 16.7429 7.45155 11.9796 12.7609 11.7948V14.4074C12.3576 14.4746 11.9292 14.5755 11.5344 14.7099C10.3498 15.1047 9.68617 15.8608 9.87099 17.1797C10.2322 19.7084 14.8695 20.456 14.483 15.5164V6.25863H17.0453L17.0369 6.25023Z" fill="black"></path>
  </g>
  <defs>
    <clipPath id="clip0_421_10730">
      <rect width="28" height="28" fill="white"></rect>
    </clipPath>
  </defs>
</svg>
