<?xml version="1.0" encoding="UTF-8"?>
<svg xmlns="http://www.w3.org/2000/svg" width="28" height="28" viewBox="0 0 28 28" fill="none">
  <g clip-path="url(#clip0_421_10732)">
    <path fill-rule="evenodd" clip-rule="evenodd" d="M14.0042 0C21.733 0 28.0084 6.26703 28.0084 14.0042C28.0084 21.733 21.7414 28.0084 14.0042 28.0084C6.27543 28.0084 0 21.7414 0 14.0042C0 6.27543 6.26703 0 14.0042 0ZM19.8848 7.9976C18.4146 6.52745 16.4656 5.72097 14.3822 5.72097C10.0978 5.72097 6.61146 9.20732 6.61146 13.4917C6.61146 14.8611 6.9727 16.1968 7.65317 17.3729L6.55266 21.4053L10.6775 20.3216C11.8116 20.9433 13.0885 21.2709 14.3906 21.2709C18.6751 21.2709 22.1614 17.7846 22.1614 13.5002C22.1614 11.4251 21.3549 9.46775 19.8848 7.9976ZM14.3906 19.9604C13.2313 19.9604 12.0888 19.6496 11.0975 19.0615L10.8623 18.9187L8.41764 19.5572L9.07291 17.1713L8.92169 16.9277C8.27483 15.9028 7.93039 14.7099 7.93039 13.4917C7.93039 9.92979 10.8287 7.0315 14.399 7.0315C16.1212 7.0315 17.751 7.70357 18.9691 8.92169C20.1872 10.1482 20.8593 11.7612 20.8593 13.4917C20.8593 17.0537 17.961 19.9604 14.399 19.9604H14.3906ZM17.9358 15.1215C17.7426 15.0207 16.7849 14.5587 16.6085 14.4915C16.432 14.4242 16.2976 14.3906 16.1716 14.5923C16.0456 14.7855 15.6676 15.2223 15.5584 15.3567C15.4407 15.4827 15.3315 15.508 15.1383 15.4071C14.9451 15.3063 14.315 15.1047 13.5758 14.441C12.9961 13.9286 12.6097 13.2901 12.4921 13.0969C12.3744 12.9037 12.4752 12.7945 12.5761 12.7021C12.6685 12.6181 12.7693 12.4752 12.8701 12.3576C12.9709 12.24 12.9961 12.1644 13.0633 12.03C13.1305 11.904 13.0969 11.7864 13.0465 11.6856C12.9961 11.5848 12.6097 10.6355 12.45 10.2406C12.2904 9.86259 12.1308 9.91299 12.0132 9.90459C11.8956 9.89619 11.7696 9.89619 11.6436 9.89619C11.5176 9.89619 11.3075 9.9466 11.1227 10.1398C10.9463 10.333 10.4422 10.8035 10.4422 11.7612C10.4422 12.7189 11.1395 13.643 11.2319 13.769C11.3327 13.895 12.6013 15.8608 14.5503 16.7009C15.0123 16.9025 15.3735 17.0201 15.6592 17.1125C16.1212 17.2553 16.5497 17.2385 16.8857 17.1881C17.2553 17.1293 18.0366 16.7177 18.1962 16.264C18.3558 15.8104 18.3558 15.4239 18.3138 15.3399C18.2718 15.2559 18.1374 15.2055 17.9442 15.1047L17.9358 15.1215Z" fill="black"></path>
  </g>
  <defs>
    <clipPath id="clip0_421_10732">
      <rect width="28" height="28" fill="white"></rect>
    </clipPath>
  </defs>
</svg>
