<?xml version="1.0" encoding="UTF-8"?>
<svg xmlns="http://www.w3.org/2000/svg" width="28" height="28" viewBox="0 0 28 28" fill="none">
  <g clip-path="url(#clip0_421_10724)">
    <path fill-rule="evenodd" clip-rule="evenodd" d="M14.0042 0C21.733 0 28.0084 6.26703 28.0084 14.0042C28.0084 21.733 21.7414 28.0084 14.0042 28.0084C6.27543 28.0084 0 21.7414 0 14.0042C0 6.27543 6.26703 0 14.0042 0ZM21.6742 10.8707C21.6742 10.8707 21.523 9.78698 21.0525 9.31653C20.456 8.69487 19.784 8.68647 19.4816 8.65287C17.2889 8.49325 14.0042 8.49325 14.0042 8.49325H13.9958C13.9958 8.49325 10.7027 8.49325 8.51845 8.65287C8.21602 8.68647 7.54395 8.69487 6.9475 9.31653C6.47705 9.78698 6.32583 10.8707 6.32583 10.8707C6.32583 10.8707 6.16622 12.1392 6.16622 13.4077V14.5923C6.16622 15.8608 6.32583 17.1293 6.32583 17.1293C6.32583 17.1293 6.47705 18.213 6.9475 18.6835C7.54395 19.3051 8.32523 19.2883 8.67807 19.3555C9.92979 19.4731 14.0042 19.5152 14.0042 19.5152C14.0042 19.5152 17.2973 19.5068 19.49 19.3555C19.7924 19.3219 20.4644 19.3135 21.0609 18.6919C21.5314 18.2214 21.6826 17.1377 21.6826 17.1377C21.6826 17.1377 21.8422 15.8692 21.8422 14.6007V13.4161C21.8422 12.1476 21.6826 10.8791 21.6826 10.8791L21.6742 10.8707ZM12.3744 16.0372V11.6352L16.6085 13.8446L12.3744 16.0372Z" fill="black"></path>
  </g>
  <defs>
    <clipPath id="clip0_421_10724">
      <rect width="28" height="28" fill="white"></rect>
    </clipPath>
  </defs>
</svg>
