<svg width="194" height="318" viewBox="0 0 194 318" fill="none" xmlns="http://www.w3.org/2000/svg">
<path fill-rule="evenodd" clip-rule="evenodd" d="M-50.0607 -1.73215C-2.96692 -20.0347 51.522 -18.9107 99.9895 6.21632C148.456 31.3427 180.777 75.224 192.963 124.258C195.127 132.967 189.821 141.781 181.113 143.946C172.404 146.11 163.589 140.804 161.425 132.095C151.382 91.6827 124.816 55.6916 85.0327 35.0665C45.2476 14.4408 0.523927 13.4734 -38.2889 28.5576C-46.6532 31.8083 -56.069 27.6629 -59.3197 19.2986C-62.5703 10.9343 -58.425 1.51854 -50.0607 -1.73215ZM-123.053 110.152C-84.8582 36.4779 5.80423 7.70453 79.4485 45.8839C153.094 84.0637 181.832 174.738 143.637 248.412C128.152 278.28 91.3889 289.943 61.5293 274.463C31.6679 258.982 20.0131 222.217 35.4977 192.349C42.725 178.408 37.2812 161.26 23.3595 154.042C9.43917 146.825 -7.7133 152.26 -14.9406 166.2C-34.3526 203.644 -31.7 246.704 -11.6432 280.552C-7.0686 288.272 -9.61862 298.239 -17.3388 302.814C-25.059 307.388 -35.0259 304.838 -39.6005 297.118C-65.1303 254.033 -68.5823 199.064 -43.7909 151.244C-28.3062 121.375 8.45643 109.712 38.3163 125.192C68.1778 140.673 79.8325 177.438 64.3479 207.306C57.1205 221.247 62.5644 238.396 76.4861 245.613C90.4067 252.83 107.56 247.396 114.787 233.455C144.726 175.704 122.193 104.648 64.4917 74.7341C6.79145 44.8206 -64.263 67.3578 -94.2028 125.109C-101.236 138.675 -106.576 152.69 -110.398 166.916C-112.726 175.583 -121.639 180.721 -130.306 178.392C-138.972 176.064 -144.11 167.151 -141.782 158.485C-137.378 142.092 -131.207 125.88 -123.053 110.152ZM43.8958 114.373C8.08629 95.8086 -36.0115 109.795 -54.5957 145.642C-70.5431 176.403 -75.6545 209.859 -71.3863 241.776C-70.1968 250.671 -76.443 258.846 -85.3376 260.035C-94.2322 261.225 -102.407 254.978 -103.596 246.084C-108.717 207.791 -102.574 167.581 -83.4459 130.685C-56.6077 78.917 7.09728 58.6915 58.8526 85.523C110.607 112.354 130.793 176.071 103.955 227.839C99.8248 235.806 90.0182 238.916 82.0514 234.786C74.0847 230.656 70.9745 220.849 75.1047 212.883C93.689 177.035 79.7043 132.937 43.8958 114.373ZM17.7602 164.853C25.727 168.983 28.8371 178.79 24.7069 186.757C6.12257 222.604 20.1072 266.703 55.9156 285.267C56.4617 285.55 56.8306 285.71 57.5121 286.006C57.9744 286.206 58.5806 286.469 59.4837 286.876C67.6673 290.558 71.3166 300.176 67.6347 308.36C63.9528 316.544 54.3338 320.193 46.1502 316.511C46.0101 316.448 45.7981 316.356 45.533 316.24C44.4648 315.775 42.5333 314.933 40.9588 314.117C-10.7962 287.286 -30.9813 223.568 -4.14329 171.8C-0.0130834 163.833 9.79346 160.723 17.7602 164.853Z" fill="#81B5BB"/>
</svg>
