<svg width="64" height="16" viewBox="0 0 64 16" fill="none" xmlns="http://www.w3.org/2000/svg">
<g id="Vector">
<path id="Vector_2" d="M56.8528 10.6162C57.3418 9.97475 57.686 9.23908 57.8627 8.4562C58.0397 7.67328 58.0457 6.85992 57.8802 6.06834C57.0847 0.845345 52.348 0.946343 48.9255 1.01773L48.6659 1.02022C45.119 1.09136 41.6118 1.37478 37.5468 1.70236C35.6965 1.85278 33.7315 2.01196 31.6133 2.16184C30.2544 2.17487 28.7798 2.16005 27.2207 2.14554C22.424 2.01314 17.6291 2.1554 12.8607 2.57162C10.319 2.83836 6.43428 5.64983 6.08143 8.04951C5.96499 8.59955 5.97349 9.16991 6.10655 9.72115C6.23961 10.2723 6.49402 10.7913 6.85216 11.2424C8.20901 12.8432 10.8341 13.1174 13.1856 13.2494C15.1842 13.3612 17.1782 13.538 19.1804 13.7132C22.552 14.0097 26.0418 14.3158 29.4837 14.3026L30.4573 14.2933C36.293 14.2373 42.7271 13.8964 50.5986 13.2267C51.7774 13.226 52.9391 12.9943 54.0139 12.5457C55.0888 12.0969 56.0543 11.4405 56.8528 10.6162Z" fill="#F79F79"/>
</g>
</svg>
