<svg width="434" height="184" viewBox="0 0 434 184" fill="none" xmlns="http://www.w3.org/2000/svg">
<path fill-rule="evenodd" clip-rule="evenodd" d="M0.931252 89.7061C5.37109 24.5889 36.5873 -38.5158 92.5692 -81.4067C148.55 -124.297 217.603 -138.014 281.633 -125.356C293.005 -123.107 300.401 -112.066 298.153 -100.694C295.905 -89.3217 284.863 -81.9253 273.491 -84.1736C220.72 -94.6063 164.052 -83.2898 118.1 -48.0835C72.1466 -12.876 46.4724 38.8947 42.8132 92.5617C42.0247 104.127 32.0098 112.863 20.4444 112.075C8.87904 111.286 0.1427 101.271 0.931252 89.7061ZM91.7169 236.464C26.5198 151.368 42.6237 29.554 127.686 -35.6169C212.749 -100.789 334.557 -84.6373 399.754 0.459185C426.186 34.9586 419.651 84.3513 385.162 110.775C350.671 137.201 301.281 130.655 274.849 96.1562C262.512 80.054 239.471 77.0096 223.391 89.3295C207.312 101.648 204.254 124.689 216.591 140.791C249.727 184.04 301.538 204.568 352.128 199.687C363.666 198.574 373.923 207.026 375.036 218.564C376.149 230.103 367.697 240.359 356.159 241.473C291.763 247.685 225.586 221.556 183.268 166.322C156.836 131.823 163.37 82.4306 197.86 56.0063C232.351 29.5807 281.741 36.1264 308.172 70.6254C320.509 86.7277 343.551 89.7721 359.631 77.4522C375.71 65.1332 378.768 42.0918 366.431 25.99C315.325 -40.7144 219.864 -53.3562 153.217 -2.29377C86.5705 48.7676 73.934 144.229 125.04 210.934C137.046 226.604 150.505 240.539 165.044 252.816C173.901 260.294 175.019 273.537 167.54 282.394C160.061 291.251 146.819 292.369 137.962 284.89C121.208 270.744 105.635 254.631 91.7169 236.464ZM188.27 43.5445C146.908 75.2339 139.065 134.479 170.788 175.884C198.01 211.414 234.329 235.751 273.997 248.275C285.051 251.765 291.183 263.555 287.693 274.61C284.203 285.664 272.413 291.796 261.358 288.306C213.767 273.281 170.115 244.03 137.465 201.414C91.6527 141.62 102.96 56.0218 162.739 10.2214C222.518 -35.5786 308.108 -24.2187 353.92 35.5755C360.97 44.7774 359.226 57.9523 350.024 65.0025C340.822 72.0526 327.647 70.3082 320.597 61.1063C288.874 19.7013 229.63 11.856 188.27 43.5445ZM232.961 101.81C242.163 94.7601 255.338 96.5045 262.388 105.706C294.11 147.112 353.355 154.957 394.715 123.269C395.346 122.786 395.736 122.442 396.455 121.807C396.944 121.377 397.584 120.812 398.555 119.979C407.352 112.429 420.603 113.44 428.153 122.237C435.702 131.034 434.692 144.285 425.895 151.835C425.744 151.964 425.52 152.161 425.239 152.408C424.108 153.402 422.065 155.199 420.246 156.592C360.467 202.392 274.876 191.031 229.064 131.237C222.014 122.035 223.759 108.86 232.961 101.81Z" fill="#D9E9EB"/>
</svg>
