<?xml version="1.0" encoding="UTF-8"?>
<svg xmlns="http://www.w3.org/2000/svg" width="24" height="24" viewBox="0 0 24 24" fill="none">
  <path fill-rule="evenodd" clip-rule="evenodd" d="M1.20001 11.9992C1.20001 7.68505 1.20001 5.52797 2.22804 3.97428C2.68711 3.28049 3.28128 2.68631 3.97508 2.22725C5.52876 1.19922 7.68584 1.19922 12 1.19922C16.3142 1.19922 18.4713 1.19922 20.025 2.22725C20.7187 2.68631 21.3129 3.28049 21.772 3.97428C22.8 5.52797 22.8 7.68505 22.8 11.9992C22.8 16.3134 22.8 18.4705 21.772 20.0242C21.3129 20.718 20.7187 21.3121 20.025 21.7712C18.4713 22.7992 16.3142 22.7992 12 22.7992C7.68584 22.7992 5.52876 22.7992 3.97508 21.7712C3.28128 21.3121 2.68711 20.718 2.22804 20.0242C1.20001 18.4705 1.20001 16.3134 1.20001 11.9992ZM17.5915 11.9996C17.5915 15.0875 15.0882 17.5909 12.0003 17.5909C8.91227 17.5909 6.40896 15.0875 6.40896 11.9996C6.40896 8.91158 8.91227 6.40827 12.0003 6.40827C15.0882 6.40827 17.5915 8.91158 17.5915 11.9996ZM12.0003 15.6992C14.0435 15.6992 15.6999 14.0428 15.6999 11.9996C15.6999 9.95633 14.0435 8.29996 12.0003 8.29996C9.95702 8.29996 8.30065 9.95633 8.30065 11.9996C8.30065 14.0428 9.95702 15.6992 12.0003 15.6992ZM17.8124 7.44115C18.538 7.44115 19.1262 6.85295 19.1262 6.12736C19.1262 5.40178 18.538 4.81357 17.8124 4.81357C17.0868 4.81357 16.4986 5.40178 16.4986 6.12736C16.4986 6.85295 17.0868 7.44115 17.8124 7.44115Z" fill="#1D7A85"></path>
</svg>
