<?xml version="1.0" encoding="UTF-8"?>
<svg xmlns="http://www.w3.org/2000/svg" width="24" height="24" viewBox="0 0 24 24" fill="none">
  <path d="M2.52452 11.3797C2.52452 11.3797 12.0777 7.45905 15.3909 6.0785C16.661 5.52633 20.9682 3.75922 20.9682 3.75922C20.9682 3.75922 22.9561 2.98618 22.7904 4.86364C22.7352 5.63676 22.2935 8.34252 21.8517 11.2692C21.189 15.4108 20.4712 19.9388 20.4712 19.9388C20.4712 19.9388 20.3607 21.209 19.422 21.4298C18.4833 21.6507 16.937 20.6568 16.661 20.4358C16.44 20.2702 12.5194 17.7852 11.0837 16.5704C10.6971 16.2391 10.2554 15.5765 11.1389 14.8034C13.1268 12.9811 15.5013 10.7171 16.937 9.28133C17.5997 8.61865 18.2623 7.07249 15.5013 8.94995C11.5807 11.6558 7.71525 14.1959 7.71525 14.1959C7.71525 14.1959 6.83169 14.7481 5.1751 14.2511C3.51843 13.7542 1.58571 13.0915 1.58571 13.0915C1.58571 13.0915 0.260492 12.2632 2.52452 11.3797Z" fill="#1D7A85"></path>
</svg>
